<?xml version="1.0" encoding="UTF-8"?>
<svg width="25px" height="25px" viewBox="0 0 25 25" version="1.1" xmlns="http://www.w3.org/2000/svg" xmlns:xlink="http://www.w3.org/1999/xlink">
    <title>Amex</title>
    <g id="Symbols" stroke="none" stroke-width="1" fill="none" fill-rule="evenodd">
        <g id="FOOTER-D" transform="translate(-862.000000, -305.000000)" fill-rule="nonzero">
            <g id="Payment-Options" transform="translate(332.000000, 305.000000)">
                <g id="Amex" transform="translate(530.000000, 0.000000)">
                    <polygon id="Path" fill="#FFFFFF" points="0 0 0 12.46 0 25 12.5 25 25 25 25 12.5 25 0 12.505 0 0 0"></polygon>
                    <path d="M20.54,6.135 L21.34,3.96 L25,3.96 L25,0 L0,0 L0,25 L25,25 L25,21.05 L21.55,21.05 L20.275,19.56 L18.95,21.05 L9.15,21.05 L9.15,13.11 L5.915,13.11 L9.96,3.96 L13.895,3.96 L14.845,6.035 L14.845,3.96 L19.73,3.96 L20.545,6.135 L20.545,6.135 L20.54,6.135 Z M17.78,7.575 L17.77,6.7 L18.105,7.575 L19.73,11.915 L21.345,11.915 L22.98,7.575 L23.295,6.71 L23.295,11.92 L24.995,11.92 L24.995,5.25 L22.17,5.25 L20.885,8.635 L20.545,9.55 L20.195,8.635 L18.905,5.25 L16.08,5.25 L16.08,11.915 L17.78,11.915 L17.78,7.575 L17.78,7.575 Z M14.12,11.915 L16.08,11.915 L13.145,5.25 L10.87,5.25 L7.92,11.915 L9.855,11.915 L10.37,10.63 L13.605,10.63 L14.12,11.915 L14.12,11.915 Z M11.655,7.505 L11.99,6.67 L12.325,7.505 L13.015,9.19 L10.965,9.19 L11.655,7.505 L11.655,7.505 L11.655,7.505 Z M10.515,13.115 L10.515,19.755 L16.08,19.755 L16.08,18.315 L12.215,18.315 L12.215,17.155 L16.005,17.155 L16.005,15.72 L12.215,15.72 L12.215,14.555 L16.08,14.555 L16.08,13.115 L10.515,13.115 L10.515,13.115 Z M22.275,19.755 L24.485,19.755 L21.37,16.42 L24.485,13.11 L22.31,13.11 L20.3,15.27 L18.3,13.11 L16.085,13.11 L19.195,16.445 L16.085,19.755 L18.235,19.755 L20.26,17.59 L22.275,19.755 L22.275,19.755 L22.275,19.755 Z M23.115,16.415 L25,18.33 L25,14.52 L23.115,16.41 L23.115,16.41 L23.115,16.415 Z" id="Shape" fill="#006FCF"></path>
                </g>
            </g>
        </g>
    </g>
</svg>