<?xml version="1.0" encoding="UTF-8"?>
<svg width="39px" height="25px" viewBox="0 0 39 25" version="1.1" xmlns="http://www.w3.org/2000/svg" xmlns:xlink="http://www.w3.org/1999/xlink">
    <title>Apple</title>
    <g id="Symbols" stroke="none" stroke-width="1" fill="none" fill-rule="evenodd">
        <g id="FOOTER-D" transform="translate(-688.000000, -305.000000)" fill-rule="nonzero">
            <g id="Payment-Options" transform="translate(332.000000, 305.000000)">
                <g id="Apple" transform="translate(356.000000, 0.000000)">
                    <path d="M35.5074113,0 L3.49263014,0 C3.35929303,0 3.22572031,0 3.09262118,0.000778558223 C2.98011048,0.00158070912 2.86786133,0.00283112081 2.75561217,0.00589816836 C2.51080345,0.0125277096 2.26389772,0.0269900184 2.02215206,0.0704949082 C1.77654223,0.114754764 1.54799126,0.186948344 1.32502448,0.300617845 C1.10582761,0.412234783 0.90515043,0.558226246 0.731241992,0.732434547 C0.557258156,0.906642848 0.411456775,1.10725135 0.300008725,1.32696992 C0.186463661,1.55022739 0.114316953,1.7791471 0.0704210303,2.02526587 C0.0267395209,2.26739747 0.0121994381,2.51457791 0.00560209055,2.75944627 C0.00258616024,2.87184177 0.00129260888,2.98423726 0.000559832064,3.09660917 C0,3.23016729 0,3.36363104 0,3.4974251 L0,21.5028344 C0,21.6366285 0,21.7698587 0.000559832064,21.9036763 C0.00129260888,22.0160482 0.00258616024,22.1284437 0.00560209055,22.2408392 C0.0121994381,22.4854929 0.0267395209,22.7326733 0.0704210303,22.9747341 C0.114316953,23.2209473 0.186463661,23.4497726 0.300008725,23.6730537 C0.411456775,23.8927722 0.557258156,24.0936403 0.731241992,24.267589 C0.90515043,24.4420805 1.10582761,24.5880483 1.32502448,24.6993822 C1.54799126,24.8133584 1.77654223,24.8855755 2.02215206,24.9298118 C2.26389772,24.9730336 2.51080345,24.9877554 2.75561217,24.9943849 C2.86786133,24.996933 2.98011048,24.9984429 3.09262118,24.9989619 C3.22572031,25 3.35929303,25 3.49263014,25 L35.5074113,25 C35.6405128,25 35.7740879,25 35.9071611,24.9989619 C36.0194126,24.9984429 36.1316641,24.996933 36.2444269,24.9943849 C36.4887173,24.9877554 36.7355759,24.9730336 36.977913,24.9298118 C37.2231929,24.8855755 37.451791,24.8133584 37.6747814,24.6993822 C37.8942139,24.5880483 38.094302,24.4420805 38.2685686,24.267589 C38.4422673,24.0936403 38.5880663,23.8927722 38.6997995,23.6730537 C38.8136014,23.4497726 38.8856774,23.2209473 38.9293613,22.9747341 C38.9730687,22.7326733 38.987253,22.4854929 38.9938739,22.2408392 C38.9969369,22.1284437 38.9984473,22.0160482 38.9989656,21.9036763 C39,21.7698587 39,21.6366308 39,21.5028344 L39,3.4974251 C39,3.36363104 39,3.23016729 38.9989656,3.09660917 C38.9984473,2.98423726 38.9969369,2.87184177 38.9938739,2.75944627 C38.9872506,2.51457791 38.9730687,2.26739747 38.9293613,2.02526587 C38.8856797,1.7791471 38.8136014,1.55022739 38.6997995,1.32696992 C38.5880663,1.10725135 38.4422673,0.906642848 38.2685686,0.732434547 C38.094302,0.558226246 37.8942139,0.412234783 37.6747814,0.300617845 C37.451791,0.186948344 37.2231929,0.114754764 36.977913,0.0704949082 C36.7355783,0.0269900184 36.4887197,0.0125277096 36.2444269,0.00589816836 C36.1316641,0.00283112081 36.0194126,0.00158070912 35.9071611,0.000778558223 C35.7740879,0 35.6405128,0 35.5074113,0 L35.5074113,0 Z" id="XMLID_4_" fill="#000000"></path>
                    <path d="M35.5074113,0.833293226 L35.9012471,0.834048191 C36.0079356,0.834803157 36.1146265,0.835959198 36.2219064,0.838884689 C36.4085195,0.843933522 36.6268163,0.854054778 36.8302973,0.890576237 C37.0071769,0.922473531 37.1555206,0.970980068 37.2978843,1.04355113 C37.4384314,1.11506052 37.5671998,1.20877062 37.6796328,1.32118971 C37.7924945,1.43436377 37.8862028,1.56351006 37.9585616,1.70579747 C38.0306352,1.84723555 38.0787723,1.99506724 38.1104396,2.17347504 C38.1468192,2.37500366 38.1568802,2.59417959 38.1619955,2.78218961 C38.1648677,2.88830945 38.1662814,2.9944293 38.1668021,3.10307356 C38.1677918,3.23446116 38.1677918,3.36577798 38.1677918,3.4974251 L38.1677918,21.5028344 C38.1677918,21.6344815 38.1677918,21.7655624 38.1667786,21.8997576 C38.1662814,22.0058538 38.16487,22.1119737 38.1619719,22.2182822 C38.1568802,22.4060091 38.1468216,22.6250671 38.1099943,22.8289786 C38.0787723,23.0049328 38.0306611,23.152788 37.9581869,23.2949339 C37.8860379,23.4368674 37.7924733,23.5658722 37.680104,23.6783384 C37.5670325,23.7915833 37.4386882,23.8850103 37.2964706,23.9571802 C37.1551696,24.0293974 37.0070803,24.0778591 36.8319443,24.1094238 C36.6243423,24.1464643 36.3968987,24.1566563 36.2256033,24.1613041 C36.1178309,24.1637341 36.0105769,24.1651945 35.9007098,24.1657159 C35.7697737,24.1667068 35.638371,24.1667068 35.5074137,24.1667068 L3.49263014,24.1667068 C3.49088656,24.1667068 3.48919009,24.1667068 3.48742295,24.1667068 C3.35797356,24.1667068 3.228265,24.1667068 3.09645942,24.1656923 C2.98899334,24.1651945 2.88176288,24.1637577 2.77809028,24.1613984 C2.60288357,24.1566563 2.37529865,24.1464879 2.16939072,24.1096597 C1.99274909,24.0778568 1.84465985,24.0293974 1.7014974,23.9562365 C1.56062283,23.8847035 1.43237275,23.7913709 1.3192518,23.6779138 C1.20700264,23.565707 1.11372086,23.4371033 1.04159771,23.2949575 C0.969403882,23.1529532 0.921101874,23.0046496 0.889342714,22.8265957 C0.852630831,22.6230853 0.842546314,22.4049003 0.837506411,22.2184474 C0.834629497,22.1116905 0.833427837,22.0049573 0.83274454,21.8988374 L0.832226177,21.5855503 L0.832226177,21.5028344 L0.832226177,3.4974251 L0.832226177,3.41470918 L0.832720978,3.10208267 C0.833427837,2.99532582 0.834629497,2.88859256 0.837506411,2.78193009 C0.842546314,2.59528845 0.852630831,2.37700903 0.889646663,2.17179996 C0.921125435,1.99535036 0.969403882,1.84704681 1.04197471,1.70433473 C1.11353236,1.56327413 1.20697908,1.43450532 1.31981964,1.3215436 C1.43221017,1.20895936 1.56087965,1.11536723 1.70265194,1.04317365 C1.84428285,0.970956475 1.99265249,0.922473531 2.16929647,0.890647015 C2.37282464,0.854031186 2.59126753,0.843933522 2.77834946,0.838861097 C2.88499087,0.835959198 2.99163228,0.834803157 3.09747258,0.834071784 L3.49263014,0.833293226 L35.5074113,0.833293226" id="XMLID_3_" fill="#FFFFFF"></path>
                    <g id="Group" transform="translate(5.286223, 6.854962)" fill="#000000">
                        <g id="Path">
                            <path d="M5.36052875,1.5535917 C5.69445821,1.13537382 5.92106061,0.57383044 5.86129571,0 C5.37246995,0.0243382019 4.77595192,0.322915281 4.43059727,0.741461104 C4.12050544,1.099881 3.84604872,1.68493683 3.91759931,2.23471218 C4.46633133,2.28237174 5.01455678,1.96007459 5.36052875,1.5535917"></path>
                            <path d="M5.85506121,2.34205649 C5.05816996,2.29452669 4.38061765,2.79492021 4.00006144,2.79492021 C3.61929552,2.79492021 3.03654003,2.36600777 2.40624123,2.37756818 C1.58586813,2.38963347 0.824656744,2.85408356 0.408352332,3.59277724 C-0.447915051,5.07052794 0.182383753,7.26254918 1.01505855,8.46609403 C1.41942412,9.06152592 1.90675369,9.71714036 2.54888531,9.69359015 C3.15559153,9.66975212 3.39339527,9.30022479 4.1308727,9.30022479 C4.86780821,9.30022479 5.08201937,9.69359015 5.72425466,9.68167349 C6.39026868,9.66974976 6.80664613,9.08594433 7.21100699,8.48993206 C7.67489005,7.81117085 7.86478764,7.1557711 7.87673119,7.11979227 C7.86478528,7.10787561 6.59246795,6.6191463 6.58067048,5.15367796 C6.5686586,3.92662065 7.57958194,3.34296386 7.6271606,3.30676798 C7.05628269,2.46133633 6.16429774,2.36600777 5.85506121,2.34205649"></path>
                        </g>
                        <g transform="translate(9.447121, 0.681434)">
                            <path d="M3.34665063,0 C5.07868056,0 6.2847558,1.195462 6.2847558,2.93596193 C6.2847558,4.68267618 5.05386275,5.88434777 3.30321888,5.88434777 L1.38553017,5.88434777 L1.38553017,8.93798996 L0,8.93798996 L0,0 L3.34665063,0 L3.34665063,0 Z M1.38552781,4.71983228 L2.97532835,4.71983228 C4.18164157,4.71983228 4.86820161,4.06953327 4.86820161,2.94217389 C4.86820161,1.81493482 4.18164157,1.1707298 2.98153221,1.1707298 L1.38552781,1.1707298 L1.38552781,4.71983228 L1.38552781,4.71983228 Z" id="Shape"></path>
                            <path d="M6.6467664,7.08602172 C6.6467664,5.94623607 7.51898758,5.24635706 9.0655967,5.15961859 L10.8470243,5.05436224 L10.8470243,4.55268999 C10.8470243,3.82795845 10.3582951,3.39438645 9.54191577,3.39438645 C8.76849222,3.39438645 8.28596694,3.76595219 8.16855771,4.34826891 L6.90664063,4.34826891 C6.98085844,3.17132716 7.98289657,2.30418317 9.59131341,2.30418317 C11.1687062,2.30418317 12.1769482,3.14038301 12.1769482,4.44731331 L12.1769482,8.93799232 L10.8964219,8.93799232 L10.8964219,7.86642725 L10.8656382,7.86642725 C10.4883524,8.59115879 9.66553121,9.04946062 8.81192398,9.04946062 C7.53759917,9.04946062 6.6467664,8.25662883 6.6467664,7.08602172 Z M10.8470243,6.49761101 L10.8470243,5.98351486 L9.24481129,6.08255926 C8.44680791,6.13835357 7.99530665,6.49139905 7.99530665,7.04886562 C7.99530665,7.61863812 8.46542186,7.99032181 9.18300593,7.99032181 C10.1170325,7.99032181 10.8470243,7.34611679 10.8470243,6.49761101 Z" id="Shape"></path>
                            <path d="M13.3858862,11.3351235 L13.3858862,10.2511346 C13.4846815,10.2758668 13.7073302,10.2758668 13.8187736,10.2758668 C14.437322,10.2758668 14.7714141,10.0157693 14.9754488,9.34683448 C14.9754488,9.33440822 15.093096,8.95041858 15.093096,8.94420663 L12.7425176,2.42186578 L14.1898532,2.42186578 L15.8354955,7.72401479 L15.8600754,7.72401479 L17.5057201,2.42186578 L18.9160681,2.42186578 L16.4786238,9.2786139 C15.9221234,10.8581835 15.2787548,11.3660677 13.9302169,11.3660677 C13.8187759,11.3660677 13.4846839,11.3536414 13.3858862,11.3351235 Z" id="Path"></path>
                        </g>
                    </g>
                </g>
            </g>
        </g>
    </g>
</svg>