<?xml version="1.0" encoding="UTF-8"?>
<svg width="117px" height="25px" viewBox="0 0 117 25" version="1.1" xmlns="http://www.w3.org/2000/svg" xmlns:xlink="http://www.w3.org/1999/xlink">
    <title>Maestro</title>
    <g id="Symbols" stroke="none" stroke-width="1" fill="none" fill-rule="evenodd">
        <g id="FOOTER-D" transform="translate(-992.000000, -305.000000)">
            <g id="Payment-Options" transform="translate(332.000000, 305.000000)">
                <g id="Maestro" transform="translate(660.000000, 0.000000)">
                    <g id="Group"></g>
                    <path d="M116.464597,15.9432448 C116.536139,15.9427573 116.607035,15.9568257 116.672994,15.9845983 C116.736403,16.0111569 116.794203,16.0495448 116.843321,16.0977215 C116.892001,16.1458463 116.930946,16.202945 116.958016,16.2658786 C117.013995,16.3965185 117.013995,16.5444684 116.958016,16.6751083 C116.930797,16.7377442 116.891864,16.7945768 116.843321,16.8425362 C116.794103,16.8907469 116.736338,16.9293238 116.672994,16.9562845 C116.607158,16.9845385 116.536212,16.9988651 116.464597,16.9983671 C116.249083,17.0005779 116.053192,16.8732424 115.967299,16.6751083 C115.911458,16.54444 115.911458,16.3965469 115.967299,16.2658786 C116.021742,16.138185 116.124179,16.0371291 116.252425,15.9845983 C116.319682,15.9567428 116.391827,15.9426814 116.464597,15.9432448 L116.464597,15.9432448 Z M116.464597,16.8819801 C116.519181,16.8823992 116.573251,16.8714013 116.623354,16.8496889 C116.671437,16.8287083 116.71516,16.7988627 116.752252,16.7617042 C116.911376,16.6005124 116.911376,16.3409606 116.752252,16.1797688 C116.715246,16.1427095 116.671489,16.1131123 116.623354,16.0925827 C116.573171,16.0711938 116.519127,16.0604023 116.464597,16.0608818 C116.409052,16.0604497 116.353988,16.0712308 116.302688,16.0925827 C116.177328,16.1460762 116.08656,16.2583592 116.060341,16.3923737 C116.034123,16.5263882 116.075861,16.6647163 116.171782,16.7617042 C116.209384,16.7991753 116.253827,16.8290462 116.302688,16.8496889 C116.353909,16.8713641 116.409,16.8823513 116.464597,16.8819801 Z M116.495566,16.2237959 C116.547384,16.2204281 116.598748,16.2353134 116.640779,16.2658786 C116.674733,16.2938698 116.693591,16.3362267 116.6917,16.3802518 C116.692883,16.4178969 116.678122,16.4542865 116.651067,16.4804239 C116.618966,16.5089243 116.578361,16.5259791 116.535579,16.52893 L116.695545,16.713823 L116.570424,16.713823 L116.422093,16.53018 L116.37429,16.53018 L116.37429,16.713823 L116.269849,16.713823 L116.269849,16.2237959 L116.495566,16.2237959 Z M116.37429,16.3156348 L116.37429,16.446223 L116.494319,16.446223 C116.517369,16.4473987 116.540256,16.4417602 116.560136,16.430008 C116.576581,16.4190024 116.585907,16.4000283 116.584592,16.3802518 C116.585671,16.3608646 116.576348,16.3423733 116.560136,16.3317456 C116.540219,16.320094 116.517352,16.3144966 116.494319,16.3156348 L116.37429,16.3156348 Z M61.8012856,16.7122952 L61.8012856,11.4949463 C61.8012856,9.52976868 60.552082,8.20808797 58.5394722,8.19065768 C57.3717491,8.11444435 56.2550643,8.6807737 55.6246175,9.66893317 C55.0499767,8.71003019 53.9982023,8.14286511 52.8832422,8.19065768 C51.9124992,8.14177218 50.9884504,8.6115309 50.4542889,9.42546476 L50.4542889,8.3993697 L48.6497644,8.3993697 L48.6497644,16.7122952 L50.4715399,16.7122952 L50.4715399,12.1035826 C50.4715399,10.6601677 51.269725,9.89511019 52.5015391,9.89511019 C53.6986782,9.89511019 54.3060291,10.677598 54.3060291,12.0862912 L54.3060291,16.7122952 L56.1278046,16.7122952 L56.1278046,12.1035826 C56.1278046,10.6601677 56.9606301,9.89511019 58.1577727,9.89511019 C59.3895868,9.89511019 59.9795135,10.677598 59.9795135,12.0862912 L59.9795135,16.7122952 L61.8012856,16.7122952 Z M71.9686713,12.555763 L71.9686713,8.3993697 L70.1641502,8.3993697 L70.1641502,9.40803448 C69.5391443,8.60078302 68.5626902,8.14706971 67.5441861,8.19065768 C65.2192928,8.19065768 63.3975519,10.0168444 63.3975519,12.555763 C63.3975519,15.0948552 65.2192928,16.921042 67.5441861,16.921042 C68.5626955,16.9646176 69.539149,16.5108917 70.1641502,15.7036304 L70.1641502,16.7122952 L71.9686713,16.7122952 L71.9686713,12.555763 Z M65.2540718,12.555763 C65.2540718,11.0949178 66.2083467,9.89511019 67.7698339,9.89511019 C69.2619017,9.89511019 70.2682066,11.0427658 70.2682066,12.555763 C70.2682066,14.0687602 69.2619017,15.2165547 67.7698339,15.2165547 C66.2083467,15.2165547 65.2540718,14.0166082 65.2540718,12.555763 L65.2540718,12.555763 Z M110.579155,8.18090089 C111.188466,8.17499359 111.793049,8.28856967 112.358873,8.51523594 C112.886295,8.7261316 113.367292,9.03873653 113.774594,9.43532571 C114.175572,9.829503 114.493627,10.3002675 114.709955,10.8197832 C115.160558,11.9330486 115.160558,13.1785122 114.709955,14.2917775 C114.493719,14.8114447 114.175654,15.2823401 113.774594,15.6765823 C113.367284,16.073118 112.886286,16.3856644 112.358873,16.5964984 C111.214068,17.0422785 109.944235,17.0422785 108.799429,16.5964984 C108.272901,16.3862778 107.793116,16.0736255 107.387762,15.6765823 C106.989133,15.2812311 106.672705,14.8105457 106.4568,14.2917775 C106.006664,13.178421 106.006664,11.9331397 106.4568,10.8197832 C106.672796,10.3011664 106.989215,9.83061161 107.387762,9.43532571 C107.793108,9.03822899 108.272891,8.72551812 108.799429,8.51523594 C109.365256,8.28856904 109.969842,8.17499295 110.579155,8.18090089 Z M110.579155,9.89104775 C110.226235,9.88787449 109.876132,9.95423443 109.548737,10.0863572 C109.240173,10.2104739 108.960199,10.3965414 108.726026,10.6331195 C108.490249,10.8747916 108.304768,11.1610434 108.18037,11.4752244 C107.914705,12.1711062 107.914705,12.9408018 108.18037,13.6366836 C108.304727,13.9508342 108.490215,14.2370367 108.726026,14.4786149 C108.96019,14.715246 109.240164,14.9013719 109.548737,15.0255508 C110.211115,15.2859633 110.947187,15.2859633 111.609566,15.0255508 C111.919072,14.9006812 112.200355,14.7146797 112.436676,14.4786149 C112.674617,14.2378787 112.861696,13.9515304 112.986731,13.6366836 C113.2524,12.9408026 113.2524,12.1711054 112.986731,11.4752244 C112.861655,11.1603476 112.674583,10.8739502 112.436676,10.6331195 C112.200347,10.3971078 111.919063,10.2111647 111.609566,10.0863572 C111.282173,9.95423506 110.932072,9.88787513 110.579155,9.89104775 L110.579155,9.89104775 Z M81.7872623,12.555763 C81.7700114,9.96451883 80.1737452,8.19065768 77.8488518,8.19065768 C75.4197601,8.19065768 73.7194339,9.96451883 73.7194339,12.555763 C73.7194339,15.1992981 75.4891449,16.921042 77.9703012,16.921042 C79.2081595,16.9645554 80.418678,16.5497701 81.3709189,15.7558171 L80.4860287,14.4166367 C79.8008531,14.9670357 78.9522876,15.2729845 78.0743265,15.2861717 C76.9117932,15.2861717 75.8534965,14.7471176 75.5932047,13.2513771 L81.7526219,13.2513771 C81.7700114,13.0253737 81.7872623,12.7993703 81.7872623,12.555763 L81.7872623,12.555763 Z M75.6105943,11.8254272 C75.8014631,10.625446 76.5300902,9.80809766 77.8140728,9.80809766 C78.9766061,9.80809766 79.7226227,10.5384335 79.9134915,11.8254272 L75.6105943,11.8254272 Z M90.1672358,9.06029686 C89.145859,8.45149921 87.971488,8.14964631 86.7838691,8.19065768 C84.6844504,8.19065768 83.3312215,9.19932246 83.3312215,10.8514494 C83.3312215,12.2080254 84.3375264,13.042804 86.1938731,13.3037027 L87.0441228,13.4254022 C88.0330381,13.5644278 88.5015501,13.8252918 88.5015501,14.2949372 C88.5015501,14.9383994 87.8421693,15.303602 86.6103932,15.303602 C85.6195182,15.3321446 84.6478493,15.0258885 83.8515903,14.434067 L83.0015138,15.8426213 C84.0524992,16.5784739 85.3114909,16.9565131 86.5930003,16.921042 C88.987313,16.921042 90.3753209,15.7904694 90.3753209,14.2079247 C90.3753209,12.7470447 89.2823457,11.9818484 87.4778557,11.7209844 L86.6277793,11.5992502 C85.846949,11.4949463 85.2223819,11.3385251 85.2223819,10.7820408 C85.2223819,10.1732656 85.81217,9.80809766 86.8012621,9.80809766 C87.7094176,9.82178723 88.599118,10.0671879 89.3864056,10.5211421 L90.1672358,9.06029686 Z M98.0568045,8.3993697 L95.1073094,8.3993697 L95.1067898,5.87774247 L93.2850142,5.87774247 L93.2855685,8.3993697 L91.6024933,8.3993697 L91.6024933,10.0515314 L93.2855685,10.0515314 L93.2855685,13.8427221 C93.2855685,15.7732127 94.031585,16.9210606 96.1656442,16.9210606 C96.9628813,16.9234088 97.7446242,16.700374 98.421118,16.2775451 L97.9007528,14.7296873 C97.4168372,15.0190238 96.8676097,15.1805989 96.3044484,15.1992981 C95.4022035,15.1992981 95.1073094,14.6426748 95.1073094,13.8080351 L95.1073094,10.0515314 L98.0568045,10.0515314 L98.0568045,8.3993697 Z M104.301506,8.19065768 C103.405301,8.164189 102.566472,8.63131945 102.115455,9.40803448 L102.115455,8.3993697 L100.328317,8.3993697 L100.328317,16.7122952 L102.132668,16.7122952 L102.132668,12.0514306 C102.132668,10.677598 102.72263,9.91236686 103.902556,9.91236686 C104.288501,9.9070504 104.671711,9.97798265 105.030307,10.1211136 L105.585489,8.41679998 C105.173404,8.26891387 104.739204,8.1924402 104.301506,8.19065768 L104.301506,8.19065768 Z" id="Shape" fill="#000000" fill-rule="nonzero"></path>
                    <g id="Group" fill-rule="nonzero">
                        <rect id="Rectangle" fill="#7375CF" x="14.7211168" y="2.67265372" width="10.9117395" height="19.6546926"></rect>
                        <path d="M15.4139914,12.5 C15.4105058,8.66457903 17.1669297,5.04062546 20.1770177,2.67265372 C15.0641376,-1.35561789 7.72127888,-0.76931798 3.30911952,4.01949254 C-1.10303984,8.80830306 -1.10303984,16.1916969 3.30911952,20.9805075 C7.72127888,25.769318 15.0641376,26.3556179 20.1770177,22.3273463 C17.1669359,19.9593695 15.4105136,16.3354192 15.4139914,12.5 L15.4139914,12.5 Z" id="Path" fill="#EB001B"></path>
                        <path d="M39.1636523,20.2456646 L39.1636523,19.8432569 L39.3255271,19.8432569 L39.3255271,19.7612753 L38.9132746,19.7612753 L38.9132746,19.8432569 L39.0752152,19.8432569 L39.0752152,20.2456646 L39.1636523,20.2456646 Z M39.9640197,20.2456646 L39.9640197,19.7604767 L39.8376514,19.7604767 L39.6923001,20.0942018 L39.5469141,19.7604767 L39.4204765,19.7604767 L39.4204765,20.2456646 L39.5097103,20.2456646 L39.5097103,19.8796816 L39.6460204,20.1952117 L39.7385451,20.1952117 L39.8748552,19.878883 L39.8748552,20.2456646 L39.9640197,20.2456646 Z" id="Shape" fill="#00A2E5"></path>
                        <path d="M40.3534129,12.5 C40.3534129,17.2855689 37.627744,21.6511673 33.3335244,23.7427591 C29.0393048,25.8343509 23.9305922,25.2847417 20.1770177,22.3273463 C23.1843034,19.957113 24.9400121,16.3346109 24.9400121,12.5 C24.9400121,8.66538915 23.1843034,5.04288701 20.1770177,2.67265372 C23.9305922,-0.284741689 29.0393048,-0.834350904 33.3335244,1.2572409 C37.627744,3.3488327 40.3534129,7.71443114 40.3534129,12.5 L40.3534129,12.5 Z" id="Path" fill="#00A2E5"></path>
                    </g>
                </g>
            </g>
        </g>
    </g>
</svg>