<?xml version="1.0" encoding="UTF-8"?>
<svg width="41px" height="26px" viewBox="0 0 41 26" version="1.1" xmlns="http://www.w3.org/2000/svg" xmlns:xlink="http://www.w3.org/1999/xlink">
    <title>Mastercard</title>
    <g id="Symbols" stroke="none" stroke-width="1" fill="none" fill-rule="evenodd">
        <g id="FOOTER-D" transform="translate(-920.000000, -305.000000)">
            <g id="Payment-Options" transform="translate(332.000000, 305.000000)">
                <g id="Mastercard" transform="translate(588.000000, 0.166474)">
                    <g id="Group" transform="translate(20.141635, 0.000094)"></g>
                    <rect id="Rectangle" fill="#FF5F00" fill-rule="nonzero" x="14.4995875" y="2.63705958" width="10.7475378" height="19.7"></rect>
                    <path d="M15.3869611,12.5 C15.3834739,8.66457724 17.1368192,5.04062044 20.1416349,2.67265372 C15.0377208,-1.35561789 7.70773868,-0.76931798 3.30331658,4.01949254 C-1.10110553,8.80830306 -1.10110553,16.1916969 3.30331658,20.9805075 C7.70773868,25.769318 15.0377208,26.3556179 20.1416349,22.3273463 C17.1368399,19.9593628 15.3834997,16.3354168 15.3869611,12.5 Z" id="Path" fill="#EB001B" fill-rule="nonzero"></path>
                    <path d="M40.2826484,12.5 C40.2826484,17.2855689 37.5617592,21.6511673 33.2750701,23.7427591 C28.9883809,25.8343509 23.888627,25.2847417 20.1416349,22.3273463 C23.1436457,19.9571122 24.8962746,16.3346104 24.8962746,12.5 C24.8962746,8.66538963 23.1436457,5.04288777 20.1416349,2.67265372 C23.888627,-0.284741689 28.9883809,-0.834350904 33.2750701,1.2572409 C37.5617592,3.3488327 40.2826484,7.71443114 40.2826484,12.5 L40.2826484,12.5 Z" id="Path" fill="#F79E1B" fill-rule="nonzero"></path>
                </g>
            </g>
        </g>
    </g>
</svg>