<?xml version="1.0" encoding="UTF-8"?>
<svg width="98px" height="24px" viewBox="0 0 98 24" version="1.1" xmlns="http://www.w3.org/2000/svg" xmlns:xlink="http://www.w3.org/1999/xlink">
    <title>PayPal</title>
    <g id="Symbols" stroke="none" stroke-width="1" fill="none" fill-rule="evenodd">
        <g id="FOOTER-D" transform="translate(-332.000000, -306.000000)" fill-rule="nonzero">
            <g id="Payment-Options" transform="translate(332.000000, 305.000000)">
                <g id="PayPal" transform="translate(0.000000, 1.000000)">
                    <path d="M36.643881,5.3673537 L31.2207661,5.3673537 C30.8496566,5.3673537 30.534055,5.63774935 30.4761683,6.00516933 L28.282816,19.952018 C28.2392027,20.2271854 28.4517184,20.4753131 28.7300505,20.4753131 L31.3190943,20.4753131 C31.6902038,20.4753131 32.0058054,20.2049175 32.0636922,19.8367022 L32.655247,16.0750215 C32.7123408,15.7068063 33.0287354,15.4364106 33.3990519,15.4364106 L35.1158298,15.4364106 C38.6881551,15.4364106 40.7498745,13.7026973 41.2883004,10.267082 C41.5309489,8.76400027 41.298609,7.58300749 40.5968314,6.7559149 C39.8260656,5.84770363 38.4589871,5.3673537 36.643881,5.3673537 Z M37.2695336,10.4611306 C36.9729632,12.412751 35.4861463,12.412751 34.0484935,12.412751 L33.2301495,12.412751 L33.8042591,8.76797667 C33.8383568,8.54768374 34.0286693,8.38544635 34.2507006,8.38544635 L34.625775,8.38544635 C35.6050917,8.38544635 36.5289005,8.38544635 37.0062679,8.94532441 C37.2909437,9.27934257 37.3781703,9.77559812 37.2695336,10.4611306 Z" id="Shape" fill="#253B80"></path>
                    <path d="M52.8545461,10.3983034 L50.2575726,10.3983034 C50.0363343,10.3983034 49.8452288,10.5605408 49.8111311,10.7808337 L49.6961506,11.5093114 L49.5145607,11.245278 C48.9523457,10.4269335 47.6986617,10.1533567 46.4473566,10.1533567 C43.5776019,10.1533567 41.1265347,12.3332229 40.6491674,15.3910796 C40.4009681,16.9164292 40.7538393,18.3749751 41.6165896,19.39214 C42.4079726,20.3273908 43.5403323,20.7170787 44.8875866,20.7170787 C47.1998842,20.7170787 48.4821151,19.2259262 48.4821151,19.2259262 L48.3663416,19.9496322 C48.3227283,20.2263901 48.535244,20.4745179 48.8119902,20.4745179 L51.1512487,20.4745179 C51.5231511,20.4745179 51.8371669,20.2041222 51.8958466,19.835907 L53.2994017,10.9215985 C53.3438079,10.6472265 53.1320852,10.3983034 52.8545461,10.3983034 Z M49.2346426,15.4674266 C48.9840644,16.955398 47.8065055,17.9542713 46.3046222,17.9542713 C45.5505087,17.9542713 44.9478523,17.7117105 44.5608834,17.2520379 C44.1770864,16.7955464 44.0311801,16.1458016 44.1532974,15.4220956 C44.3872232,13.9468487 45.5846064,12.9153688 47.0634935,12.9153688 C47.8009547,12.9153688 48.4004393,13.1611107 48.7953378,13.6247598 C49.1910293,14.0931805 49.3480372,14.7469017 49.2346426,15.4674266 Z" id="Shape" fill="#253B80"></path>
                    <path d="M66.6855112,10.3983034 L64.0758502,10.3983034 C63.8268579,10.3983034 63.5929321,10.5223673 63.4517836,10.7299357 L59.8524974,16.0471867 L58.326825,10.9375041 C58.2308758,10.617801 57.9366843,10.3983034 57.6036373,10.3983034 L55.0391756,10.3983034 C54.7275388,10.3983034 54.5110583,10.7036914 54.6101794,10.9979455 L57.484692,19.4581483 L54.7822537,23.2842468 C54.569738,23.5856584 54.7838396,24 55.1509843,24 L57.7574733,24 C58.0048796,24 58.2364266,23.8791172 58.3767821,23.6755252 L67.0566206,11.1100802 C67.2643785,10.8094638 67.0510699,10.3983034 66.6855112,10.3983034 Z" id="Path" fill="#253B80"></path>
                    <path d="M75.3257012,5.3673537 L69.9017934,5.3673537 C69.5314768,5.3673537 69.2158752,5.63774935 69.1579885,6.00516933 L66.9646362,19.952018 C66.9210229,20.2271854 67.1335386,20.4753131 67.4102848,20.4753131 L70.193606,20.4753131 C70.4521138,20.4753131 70.6733522,20.2860362 70.7137936,20.028365 L71.3362743,16.0750215 C71.393368,15.7068063 71.7097627,15.4364106 72.0800792,15.4364106 L73.7960641,15.4364106 C77.3691823,15.4364106 79.4301087,13.7026973 79.9693276,10.267082 C80.2127691,8.76400027 79.9788433,7.58300749 79.2770657,6.7559149 C78.5070928,5.84770363 77.1408073,5.3673537 75.3257012,5.3673537 Z M75.9513538,10.4611306 C75.6555763,12.412751 74.1687595,12.412751 72.7303137,12.412751 L71.9127627,12.412751 L72.4876652,8.76797667 C72.5217629,8.54768374 72.7104895,8.38544635 72.9333138,8.38544635 L73.3083881,8.38544635 C74.2869119,8.38544635 75.2115137,8.38544635 75.688881,8.94532441 C75.9735569,9.27934257 76.0599905,9.77559812 75.9513538,10.4611306 Z" id="Shape" fill="#179BD7"></path>
                    <path d="M91.5355733,10.3983034 L88.9401858,10.3983034 C88.7173615,10.3983034 88.5278419,10.5605408 88.4945372,10.7808337 L88.3795567,11.5093114 L88.1971739,11.245278 C87.6349588,10.4269335 86.3820678,10.1533567 85.1307628,10.1533567 C82.261008,10.1533567 79.8107338,12.3332229 79.3333665,15.3910796 C79.0859602,16.9164292 79.4372454,18.3749751 80.2999957,19.39214 C81.0929647,20.3273908 82.2237385,20.7170787 83.5709928,20.7170787 C85.8832904,20.7170787 87.1655212,19.2259262 87.1655212,19.2259262 L87.0497477,19.9496322 C87.0061344,20.2263901 87.2186501,20.4745179 87.4969822,20.4745179 L89.8354478,20.4745179 C90.2057643,20.4745179 90.521366,20.2041222 90.5792527,19.835907 L91.9836008,10.9215985 C92.0264211,10.6472265 91.8139054,10.3983034 91.5355733,10.3983034 Z M87.9156699,15.4674266 C87.6666776,16.955398 86.4875327,17.9542713 84.9856495,17.9542713 C84.2331219,17.9542713 83.6288795,17.7117105 83.2419107,17.2520379 C82.8581137,16.7955464 82.7137933,16.1458016 82.8343246,15.4220956 C83.0698364,13.9468487 84.2656336,12.9153688 85.7445208,12.9153688 C86.4819819,12.9153688 87.0814665,13.1611107 87.476365,13.6247598 C87.8736425,14.0931805 88.0306504,14.7469017 87.9156699,15.4674266 Z" id="Shape" fill="#179BD7"></path>
                    <path d="M94.5972266,5.74988402 L92.3713626,19.952018 C92.3277493,20.2271854 92.540265,20.4753131 92.8170112,20.4753131 L95.0547697,20.4753131 C95.4266721,20.4753131 95.7422738,20.2049175 95.7993675,19.8367022 L97.9943057,5.89064882 C98.037919,5.61548148 97.8254033,5.36655842 97.5486571,5.36655842 L95.0428751,5.36655842 C94.8216368,5.3673537 94.6313242,5.52959109 94.5972266,5.74988402 Z" id="Path" fill="#179BD7"></path>
                    <path d="M5.7617038,23.1856319 L6.17642659,20.5437073 L5.25261771,20.5222347 L0.841331234,20.5222347 L3.90694934,1.02750348 C3.91646497,0.968652661 3.94739076,0.913778249 3.99258999,0.874809464 C4.03778922,0.835840679 4.09567596,0.814368083 4.1559416,0.814368083 L11.5939907,0.814368083 C14.0632961,0.814368083 15.7673865,1.32971039 16.6570977,2.34687521 C17.0741994,2.82404401 17.339844,3.3226854 17.468305,3.87142952 C17.6031097,4.4472132 17.6054886,5.13513155 17.4738558,5.97415336 L17.4643401,6.03539002 L17.4643401,6.5730002 L17.8814418,6.80999404 C18.2327271,6.99688515 18.5118522,7.21081583 18.7259538,7.45576248 C19.0827898,7.8637418 19.3135438,8.38226523 19.411079,8.9970177 C19.5117861,9.62926635 19.4784814,10.3816025 19.3135438,11.2333488 C19.1232313,12.2131354 18.8155593,13.0664723 18.4000435,13.7647293 C18.0178325,14.4081119 17.5309495,14.9417456 16.9528751,15.3552919 C16.4009687,15.7481609 15.7451834,16.0463914 15.0037574,16.2372589 C14.2853275,16.4249453 13.4661905,16.5195838 12.5677566,16.5195838 L11.9888893,16.5195838 C11.5749595,16.5195838 11.1729242,16.6690967 10.8573225,16.9371065 C10.5409279,17.2106833 10.3315841,17.5844655 10.2673536,17.9932401 L10.2237403,18.2310292 L9.49103695,22.8874014 L9.45773226,23.0583869 C9.4490096,23.112466 9.43394319,23.1395056 9.41174006,23.1577971 C9.39191583,23.174498 9.36336895,23.1856319 9.33561503,23.1856319 L5.7617038,23.1856319 Z" id="Path" fill="#253B80"></path>
                    <path d="M18.2763404,6.09742196 L18.2763404,6.09742196 L18.2763404,6.09742196 C18.2541372,6.23977732 18.2287622,6.3853138 18.2002153,6.53482669 C17.2193127,11.5856584 13.863468,13.3305057 9.57747057,13.3305057 L7.39521992,13.3305057 C6.87106742,13.3305057 6.42938369,13.7122407 6.34770789,14.2307641 L6.34770789,14.2307641 L6.34770789,14.2307641 L5.23041458,21.3373981 L4.91401996,23.3518457 C4.86089103,23.6922261 5.1225708,23.9992047 5.4651334,23.9992047 L9.33561503,23.9992047 C9.79395111,23.9992047 10.1832989,23.6651866 10.2554591,23.2118762 L10.2935216,23.0146464 L11.0222601,18.3765657 L11.0690452,18.1220757 C11.1404124,17.6671748 11.5305532,17.3331566 11.9888893,17.3331566 L12.5677566,17.3331566 C16.317707,17.3331566 19.2532782,15.8062164 20.1112706,11.3876334 C20.4696926,9.54178541 20.2841379,8.00053019 19.3357469,6.91656173 C19.0486922,6.58970111 18.6926491,6.31851017 18.2763404,6.09742196 Z" id="Path" fill="#179BD7"></path>
                    <path d="M17.2502385,5.6870568 C17.1003674,5.64331632 16.9457384,5.60355226 16.7871446,5.5677646 C16.6277578,5.53277222 16.4644062,5.50175625 16.2962968,5.47471668 C15.7079138,5.37928292 15.06323,5.33395189 14.372554,5.33395189 L8.54264605,5.33395189 C8.39911866,5.33395189 8.26272799,5.36655842 8.14061077,5.42540924 C7.87179428,5.5550401 7.6719661,5.8103254 7.62359499,6.12287097 L6.38339149,14.0009278 L6.34770789,14.2307641 C6.42938369,13.7122407 6.87106742,13.3305057 7.39521992,13.3305057 L9.57747057,13.3305057 C13.863468,13.3305057 17.2193127,11.5848631 18.2002153,6.53482669 C18.2295552,6.3853138 18.2541372,6.23977732 18.2763404,6.09742196 C18.0281411,5.96540526 17.7593246,5.85247531 17.4698909,5.75624627 C17.3985237,5.73238783 17.3247776,5.70932467 17.2502385,5.6870568 Z" id="Path" fill="#222D65"></path>
                    <path d="M7.62359499,6.12287097 C7.6719661,5.8103254 7.87179428,5.5550401 8.14061077,5.42620452 C8.26352096,5.3673537 8.39911866,5.33474717 8.54264605,5.33474717 L14.372554,5.33474717 C15.06323,5.33474717 15.7079138,5.3800782 16.2962968,5.47551196 C16.4644062,5.50255153 16.6277578,5.5335675 16.7871446,5.56855988 C16.9457384,5.60434754 17.1003674,5.6441116 17.2502385,5.68785208 C17.3247776,5.71011995 17.3985237,5.73318311 17.4706839,5.75624627 C17.7601176,5.85247531 18.028934,5.96620054 18.2771333,6.09742196 C18.5689459,4.23089668 18.2747544,2.96003711 17.2684768,1.80926503 C16.1591132,0.542381868 14.1568665,0 11.5947837,0 L4.15673457,0 C3.63337504,0 3.1869335,0.381735039 3.10605066,0.901053748 L0.0079208275,20.5961959 C-0.0531377846,20.9858838 0.246604493,21.3373981 0.638331173,21.3373981 L5.23041458,21.3373981 L6.38339149,14.0009278 L7.62359499,6.12287097 Z" id="Path" fill="#253B80"></path>
                </g>
            </g>
        </g>
    </g>
</svg>