<?xml version="1.0" encoding="UTF-8"?>
<svg width="71px" height="23px" viewBox="0 0 71 23" version="1.1" xmlns="http://www.w3.org/2000/svg" xmlns:xlink="http://www.w3.org/1999/xlink">
    <title>Visa</title>
    <g id="Symbols" stroke="none" stroke-width="1" fill="none" fill-rule="evenodd">
        <g id="FOOTER-D" transform="translate(-759.000000, -306.000000)" fill="#2637C6" fill-rule="nonzero">
            <g id="Payment-Options" transform="translate(332.000000, 305.000000)">
                <g id="Visa" transform="translate(427.000000, 1.000000)">
                    <path d="M26.9254332,0.40652819 L17.6408902,22.6520772 L11.5834249,22.6520772 L7.01484028,4.89910979 C6.73745269,3.80563798 6.49626215,3.40504451 5.65264931,2.94436202 C4.27568403,2.1939911 2.00117969,1.49035608 0,1.05341246 L0.135923611,0.40652819 L9.88659592,0.40652819 C11.1294844,0.40652819 12.2467912,1.23738872 12.5289805,2.67470326 L14.9419939,15.5471068 L20.9056424,0.40652819 L26.9254332,0.40652819 Z M50.6599857,15.389095 C50.6843633,9.51780415 42.5754857,9.19436202 42.6312587,6.57158754 C42.6486185,5.77336795 43.4054323,4.92470326 45.0620013,4.70808605 C45.8830833,4.60014837 48.1453989,4.51780415 50.7113264,5.70363501 L51.717826,0.986275964 C50.3390139,0.483679525 48.5649891,0 46.3577079,0 C40.6936085,0 36.7075009,3.02373887 36.6738893,7.35348665 C36.6373229,10.5560089 39.5190512,12.3431009 41.6901354,13.40727 C43.9236411,14.4970326 44.6730677,15.1973294 44.6645725,16.1721068 C44.6486901,17.6643175 42.8831606,18.3230712 41.23324,18.3490356 C38.3529891,18.393546 36.6816458,17.5663947 35.3493728,16.944362 L34.3107391,21.8178783 C35.6496606,22.4347181 38.1210326,22.9729228 40.6832665,23 C46.7034266,23 50.6415178,20.013724 50.6599857,15.389095 M65.6167539,22.6524481 L70.9166667,22.6524481 L66.2904622,0.40652819 L61.3986897,0.40652819 C60.2987426,0.40652819 59.3709162,1.04970326 58.9601905,2.03857567 L50.3611753,22.6520772 L56.3783806,22.6520772 L57.5732526,19.3290059 L64.9253164,19.3290059 L65.6171233,22.6520772 L65.6167539,22.6524481 Z M59.2228038,14.7700297 L62.2389783,6.41765579 L63.9749592,14.7700297 L59.2231732,14.7700297 L59.2228038,14.7700297 Z M35.1133533,0.40652819 L30.3748641,22.6520772 L24.6446497,22.6520772 L29.3849857,0.40652819 L35.1133533,0.40652819 L35.1133533,0.40652819 Z" id="Shape"></path>
                </g>
            </g>
        </g>
    </g>
</svg>